<?xml version="1.0" encoding="UTF-8"?><svg id="Layer_1" xmlns="http://www.w3.org/2000/svg" viewBox="0 0 645.52 221.97"><defs><style>.cls-1{fill:#030236;}.cls-1,.cls-2{stroke-width:0px;}.cls-2{fill:#f50;}</style></defs><path class="cls-2" d="M0,149.73c.91,39.49,32.75,71.33,72.24,72.24.96.02,1.74-.76,1.74-1.72v-72.26s-72.26,0-72.26,0c-.96,0-1.74.79-1.72,1.74Z"/><path class="cls-2" d="M73.98,1.72v146.27c40.87,0,74-33.13,74-74C147.99,33.7,115.79.93,75.73,0c-.96-.02-1.74.76-1.74,1.72Z"/><path class="cls-1" d="M222.39,105V38.26c0-.9.6-1.49,1.49-1.49h21.02c16.53,0,24.5,9.26,24.5,22.61s-7.97,22.71-24.5,22.71h-8.27v22.91c0,.9-.6,1.49-1.49,1.49h-11.26c-.9,0-1.49-.6-1.49-1.49ZM244.41,69.44c6.08,0,11.36-2.09,11.36-10.06s-5.28-9.96-11.36-9.96h-7.77v20.02h7.77Z"/><path class="cls-1" d="M316.03,87.27h-29.58c1.49,6.18,6.37,9.56,14.34,9.56,3.79,0,7.37-.7,11.36-2.99.7-.4,1.2-.3,1.69.4l3.68,5.08c.5.7.4,1.39-.5,2.19-4.18,4.18-10.46,6.18-17.33,6.18-16.04,0-26.79-11.06-26.79-25.8s10.06-25.4,25.1-25.4,23.41,10.96,23.41,23.31c0,4.78-1.1,7.47-5.38,7.47ZM286.24,77.61h22.91c-.8-6.57-5.18-9.76-11.06-9.76s-10.76,3.29-11.85,9.76Z"/><path class="cls-1" d="M326.55,82.09c0-14.44,10.86-25.6,25.6-25.6s25.5,11.16,25.5,25.6-10.86,25.6-25.5,25.6-25.6-11.16-25.6-25.6ZM364.4,82.09c0-7.97-5.38-12.95-12.25-12.95s-12.35,4.98-12.35,12.95,5.38,12.95,12.35,12.95,12.25-4.98,12.25-12.95Z"/><path class="cls-1" d="M436.52,82.09c0,14.54-9.46,25.6-23.11,25.6-6.87,0-11.85-2.59-15.14-6.97v23.21c0,.9-.6,1.49-1.49,1.49h-10.86c-.9,0-1.49-.6-1.49-1.49V59.18c0-.9.6-1.49,1.49-1.49h9.86c.9,0,1.49.6,1.49,1.49l.2,5.38c3.29-4.98,8.57-8.07,15.94-8.07,13.65,0,23.11,11.16,23.11,25.6ZM423.07,82.09c0-7.77-5.38-13.05-12.55-13.05s-12.45,5.18-12.45,13.05,5.08,13.05,12.45,13.05,12.55-5.18,12.55-13.05Z"/><path class="cls-1" d="M443.59,105V36.77c0-.9.6-1.49,1.49-1.49h10.86c.9,0,1.49.6,1.49,1.49v68.23c0,.9-.6,1.49-1.49,1.49h-10.86c-.9,0-1.49-.6-1.49-1.49Z"/><path class="cls-1" d="M507.64,87.27h-29.58c1.49,6.18,6.37,9.56,14.34,9.56,3.79,0,7.37-.7,11.36-2.99.7-.4,1.2-.3,1.69.4l3.68,5.08c.5.7.4,1.39-.5,2.19-4.18,4.18-10.46,6.18-17.33,6.18-16.04,0-26.79-11.06-26.79-25.8s10.06-25.4,25.1-25.4,23.41,10.96,23.41,23.31c0,4.78-1.1,7.47-5.38,7.47ZM477.86,77.61h22.91c-.8-6.57-5.18-9.76-11.06-9.76s-10.76,3.29-11.85,9.76Z"/><path class="cls-1" d="M222.21,188.28v-66.74c0-.9.6-1.49,1.49-1.49h21.02c16.53,0,24.5,9.26,24.5,22.61s-7.97,22.71-24.5,22.71h-8.27v22.91c0,.9-.6,1.49-1.49,1.49h-11.26c-.9,0-1.49-.6-1.49-1.49ZM244.22,152.72c6.08,0,11.36-2.09,11.36-10.06s-5.28-9.96-11.36-9.96h-7.77v20.02h7.77Z"/><path class="cls-1" d="M276,188.28v-68.23c0-.9.6-1.49,1.49-1.49h10.86c.9,0,1.49.6,1.49,1.49v68.23c0,.9-.6,1.49-1.49,1.49h-10.86c-.9,0-1.49-.6-1.49-1.49Z"/><path class="cls-1" d="M349.41,142.46v45.82c0,.9-.7,1.49-1.59,1.49h-9.66c-.9,0-1.49-.6-1.49-1.49l-.2-5.38c-3.39,4.98-8.57,8.07-15.94,8.07-13.75,0-23.21-11.06-23.21-25.6s9.46-25.6,23.21-25.6c7.37,0,12.65,3.09,15.94,8.07l.2-5.38c0-.9.6-1.49,1.49-1.49h9.76c.9,0,1.49.6,1.49,1.49ZM335.76,165.37c0-7.87-5.08-13.05-12.35-13.05s-12.65,5.28-12.65,13.05,5.38,13.05,12.65,13.05,12.35-5.18,12.35-13.05Z"/><path class="cls-1" d="M367.04,207l7.07-17.13-18.83-47.22c-.4-1.1.1-1.69,1.19-1.69h10.96c.8,0,1.49.4,1.79,1.19l11.66,31.68,11.55-31.68c.3-.8,1-1.19,1.79-1.19h10.96c1.1,0,1.59.6,1.2,1.69l-25.8,64.85c-.3.8-1,1.19-1.79,1.19h-10.56c-1.1,0-1.69-.6-1.2-1.69Z"/><path class="cls-1" d="M464.46,165.37c0,14.54-9.46,25.6-23.11,25.6-7.37,0-12.55-3.09-15.94-8.07l-.2,5.38c0-.9-.6-1.49-1.49-1.49h-9.76c-.9,0-1.59-.6-1.59-1.49v-68.23c0-.9.6-1.49,1.49-1.49h10.86c.9,0,1.49.6,1.49,1.49v26.7c3.29-4.38,8.27-6.97,15.14-6.97,13.65,0,23.11,11.16,23.11,25.6ZM451.01,165.37c0-7.77-5.38-13.05-12.55-13.05s-12.45,5.18-12.45,13.05,5.08,13.05,12.45,13.05,12.55-5.18,12.55-13.05Z"/><path class="cls-1" d="M469.14,165.37c0-14.44,10.86-25.6,25.6-25.6s25.5,11.16,25.5,25.6-10.86,25.6-25.5,25.6-25.6-11.16-25.6-25.6ZM507,165.37c0-7.97-5.38-12.95-12.25-12.95s-12.35,4.98-12.35,12.95,5.38,12.95,12.35,12.95,12.25-4.98,12.25-12.95Z"/><path class="cls-1" d="M524.83,165.37c0-14.44,10.86-25.6,25.6-25.6s25.5,11.16,25.5,25.6-10.86,25.6-25.5,25.6-25.6-11.16-25.6-25.6ZM562.68,165.37c0-7.97-5.38-12.95-12.25-12.95s-12.35,4.98-12.35,12.95,5.38,12.95,12.35,12.95,12.25-4.98,12.25-12.95Z"/><path class="cls-1" d="M628.32,189.77h-11.55c-.8,0-1.29-.2-1.79-.9l-13.15-17.83-6.08,6.87v10.36c0,.9-.6,1.49-1.49,1.49h-10.86c-.9,0-1.49-.6-1.49-1.49v-68.23c0-.9.6-1.49,1.49-1.49h10.86c.9,0,1.49.6,1.49,1.49v40.74l16.04-19.03c.5-.6,1.1-.8,1.79-.8h12.25c1.3,0,1.59.8.8,1.79l-16.53,18.83,19.12,26.4c.7,1,.3,1.79-.9,1.79Z"/><path class="cls-1" d="M633.56,139.6v-4.76h-2.07c-.1,0-.17-.07-.17-.17v-.85c0-.1.07-.17.17-.17h5.51c.1,0,.17.07.17.17v.85c0,.1-.07.17-.17.17h-2.07v4.76c0,.1-.07.17-.17.17h-1.02c-.1,0-.17-.07-.17-.17ZM638.28,139.6v-5.78c0-.1.07-.17.17-.17h1.16c.07,0,.17.03.2.1l2.07,4.35,2.07-4.35c.03-.07.14-.1.2-.1h1.19c.1,0,.17.07.17.17v5.78c0,.1-.07.17-.17.17h-1.05c-.1,0-.17-.07-.17-.17v-3.6l-1.67,3.67c-.03.07-.14.1-.2.1h-.75c-.07,0-.17-.03-.2-.1l-1.67-3.67v3.6c0,.1-.07.17-.17.17h-1.02c-.1,0-.17-.07-.17-.17Z"/></svg>